<?xml version="1.0" encoding="utf-8"?>
<svg xmlns="http://www.w3.org/2000/svg" viewBox="46.787 48.141 280 322" width="280px" height="322px"><g id="object-2"><path d="M 46.787 48.141 C 139.187 48.141 231.587 48.141 326.787 48.141 C 326.787 154.401 326.787 260.661 326.787 370.141 C 234.387 370.141 141.987 370.141 46.787 370.141 C 46.787 263.881 46.787 157.621 46.787 48.141 Z M 70.787 72.141 C 70.787 162.561 70.787 252.981 70.787 346.141 C 147.347 346.141 223.907 346.141 302.787 346.141 C 302.787 255.721 302.787 165.301 302.787 72.141 C 292.557 72.141 282.327 72.141 271.787 72.141 C 271.787 115.041 271.787 157.941 271.787 202.141 C 271.127 202.141 270.467 202.141 269.787 202.141 C 269.539 201.568 269.292 200.995 269.037 200.404 C 267.591 197.786 265.918 196.032 263.796 193.923 C 262.976 193.102 262.155 192.282 261.309 191.436 C 259.98 190.122 259.98 190.122 258.623 188.781 C 257.716 187.877 256.809 186.973 255.874 186.041 C 253.468 183.643 251.057 181.251 248.644 178.86 C 246.18 176.417 243.722 173.968 241.264 171.52 C 236.443 166.721 231.617 161.929 226.787 157.141 C 223.348 158.621 221.134 160.556 218.509 163.207 C 217.675 164.045 216.841 164.882 215.982 165.745 C 214.644 167.103 214.644 167.103 213.279 168.488 C 211.871 169.904 210.463 171.321 209.055 172.737 C 207.087 174.718 205.123 176.704 203.159 178.689 C 199.716 182.17 196.268 185.647 192.817 189.12 C 190.98 190.969 189.146 192.821 187.315 194.675 C 186.487 195.509 185.659 196.344 184.806 197.203 C 184.077 197.941 183.347 198.679 182.595 199.439 C 180.787 201.141 180.787 201.141 178.787 202.141 C 178.787 159.241 178.787 116.341 178.787 72.141 C 143.147 72.141 107.507 72.141 70.787 72.141 Z M 203.787 72.141 C 203.787 95.571 203.787 119.001 203.787 143.141 C 209.297 138.466 209.297 138.466 214.463 133.527 C 215.063 132.92 215.663 132.312 216.281 131.686 C 216.881 131.073 217.481 130.46 218.1 129.828 C 219.323 128.58 220.548 127.334 221.775 126.09 C 222.307 125.547 222.838 125.004 223.386 124.444 C 224.787 123.141 224.787 123.141 226.787 122.141 C 227.033 122.711 227.278 123.282 227.531 123.87 C 229.002 126.529 230.731 128.327 232.885 130.469 C 234.087 131.668 234.087 131.668 235.313 132.891 C 236.15 133.716 236.987 134.541 237.85 135.391 C 238.691 136.231 239.532 137.072 240.398 137.938 C 243.661 141.895 243.661 141.895 247.787 144.141 C 247.787 120.381 247.787 96.621 247.787 72.141 C 233.267 72.141 218.747 72.141 203.787 72.141 Z" fill="#670B27" id="object-0"/><path d="M 179.787 71.141 C 187.707 71.141 195.627 71.141 203.787 71.141 C 204.117 94.571 204.447 118.001 204.787 142.141 C 211.387 135.541 217.987 128.941 224.787 122.141 C 225.447 122.141 226.107 122.141 226.787 122.141 C 228.057 123.434 228.057 123.434 229.6 125.328 C 235.016 131.553 240.953 137.306 246.787 143.141 C 247.117 119.381 247.447 95.621 247.787 71.141 C 255.707 71.141 263.627 71.141 271.787 71.141 C 271.787 114.371 271.787 157.601 271.787 202.141 C 271.127 202.141 270.467 202.141 269.787 202.141 C 268.361 200.695 268.361 200.695 266.697 198.682 C 262.757 194.051 258.541 189.767 254.229 185.484 C 253.439 184.697 252.65 183.909 251.837 183.097 C 249.344 180.609 246.847 178.125 244.35 175.641 C 242.647 173.943 240.944 172.245 239.242 170.547 C 235.093 166.409 230.941 162.274 226.787 158.141 C 223.341 159.622 221.133 161.562 218.509 164.223 C 217.258 165.484 217.258 165.484 215.982 166.771 C 215.09 167.679 214.198 168.588 213.279 169.524 C 211.871 170.943 210.463 172.363 209.055 173.782 C 206.586 176.272 204.124 178.769 201.662 181.266 C 198.717 184.251 195.771 187.236 192.817 190.213 C 190.978 192.067 189.144 193.925 187.315 195.788 C 186.073 197.04 186.073 197.04 184.806 198.317 C 184.077 199.057 183.347 199.797 182.595 200.56 C 180.787 202.141 180.787 202.141 178.787 202.141 C 178.764 185.208 178.746 168.275 178.735 151.343 C 178.73 143.481 178.723 135.62 178.712 127.758 C 178.702 120.908 178.695 114.059 178.693 107.209 C 178.692 103.58 178.689 99.951 178.681 96.322 C 178.673 92.277 178.673 88.233 178.674 84.188 C 178.67 82.976 178.666 81.764 178.663 80.515 C 178.664 79.42 178.665 78.325 178.667 77.196 C 178.666 76.239 178.665 75.281 178.664 74.294 C 178.787 72.141 178.787 72.141 179.787 71.141 Z" fill="#F16B6C" id="object-1"/></g></svg>