<svg id="Layer_1" data-name="Layer 1" xmlns="http://www.w3.org/2000/svg" viewBox="0 0 600 600"><defs><style>.cls-1{fill:#f26c6d;}.cls-2{fill:#680d29;}</style></defs><path class="cls-1" d="M340.56,192.49V257L325.73,242.2,310.89,257V192.49h-15.5V294.42l30.34-30.33,30.33,30.37v-102Z"/><path class="cls-2" d="M207.33,272.45v46.3h15.5v-46.3Zm0-80V275.9h15.5V208H377.17V275.9h15.5V192.49Zm169.84,80v46.3h15.5v-46.3Z"/><polygon class="cls-2" points="392.67 312.26 392.67 405.88 357.84 405.88 357.84 390.39 377.18 390.39 377.18 298.96 392.67 312.26"/><path class="cls-2" d="M234.91,343.86a9.14,9.14,0,0,0,3.1-7,11.45,11.45,0,0,0-11.39-11.35H207.33v37.43h20.14a11.35,11.35,0,0,0,11.39-11.35A9.14,9.14,0,0,0,234.91,343.86Zm-19.48-10.39h11a3.58,3.58,0,0,1,3.45,3.65,3.37,3.37,0,0,1-3.45,3.37h-11Zm11.93,21.47H215.43v-7.09h11.93a3.55,3.55,0,0,1,0,7.09Z"/><path class="cls-2" d="M269.28,325.49a19.32,19.32,0,0,0-6.86-1.24,19.1,19.1,0,0,0-6.82,1.24,20,20,0,1,0,13.68,0Zm-6.86,30.65a11.94,11.94,0,1,1,11.93-12A12,12,0,0,1,262.42,356.14Z"/><path class="cls-2" d="M312.59,325.49a19.28,19.28,0,0,0-6.86-1.24,19.05,19.05,0,0,0-6.81,1.24,20,20,0,1,0,13.67,0Zm-6.86,30.65a11.94,11.94,0,1,1,11.94-12A11.94,11.94,0,0,1,305.73,356.14Z"/><path class="cls-2" d="M351.18,344.17l6.66-7.91,9.07-10.77H356.37l-17.67,21v-21h-8.09v37.43h8.09v-4.15l7.09-8.25,10.54,12.4h10.58l-9.07-10.81Z"/><path class="cls-2" d="M215.43,398.25V368.81h-8.1v37.42h29.95v-8Z"/><path class="cls-2" d="M242.85,368.81v37.42H251V368.81Z"/><path class="cls-2" d="M273.69,368.81h-15.8v37.42h15.8a17.71,17.71,0,0,0,3.57-.35,18.58,18.58,0,0,0,14.88-15.49,16.76,16.76,0,0,0,.23-2.79A18.68,18.68,0,0,0,273.69,368.81Zm.35,29.44H266V376.83H274a10.48,10.48,0,0,1,10.31,10.77,9.55,9.55,0,0,1-.39,2.79A10.31,10.31,0,0,1,274,398.25Z"/><path class="cls-2" d="M297.25,368.81v37.42h8.1V368.81Z"/><path class="cls-2" d="M330.22,367.57a20,20,0,0,0-20,19.91,18.25,18.25,0,0,0,.23,2.91,20,20,0,0,0,11.93,15.49,19.69,19.69,0,0,0,15.69,0A20,20,0,0,0,350,390.39a18.25,18.25,0,0,0,.23-2.91A20,20,0,0,0,330.22,367.57Zm0,31.88a12,12,0,0,1-11.55-9.06,12,12,0,0,1,11.55-14.8,12,12,0,0,1,11.93,11.89,11.6,11.6,0,0,1-.35,2.91A11.88,11.88,0,0,1,330.22,399.45Z"/></svg>